<svg xmlns="http://www.w3.org/2000/svg" width="84.18" height="28.95" viewBox="0 0 84.18 28.95">
  <title>logo</title>
  <g id="cabc92be-3927-4c55-8963-0fc2f7c1e7f7" data-name="Layer 2">
    <g id="35af7e91-9e2f-4bb6-8f53-d1903c3e5c6e" data-name="Layer 1">
      <g>
        <path d="M0,.23H4.18V24.65H17.62v4.06H0Z" fill="#102542"/>
        <path d="M18.91,14.47a49.27,49.27,0,0,1,.28-6.65,7.94,7.94,0,0,1,.93-2.72,9.69,9.69,0,0,1,3.21-3.5A9.31,9.31,0,0,1,28.76,0a9.46,9.46,0,0,1,8.62,5.12,6.64,6.64,0,0,1,1,2.71,58,58,0,0,1,.24,6.64,57.88,57.88,0,0,1-.24,6.6,6.73,6.73,0,0,1-1,2.76,9.16,9.16,0,0,1-3.14,3.47A9.62,9.62,0,0,1,28.76,29a9.95,9.95,0,0,1-8.64-5.12c-.2-.43-.39-.84-.55-1.23a8.31,8.31,0,0,1-.38-1.53A49.08,49.08,0,0,1,18.91,14.47Zm4.17,0a34.4,34.4,0,0,0,.31,5.7,4.75,4.75,0,0,0,1.08,2.41A4.9,4.9,0,0,0,26.21,24a4.73,4.73,0,0,0,2.54.65,5,5,0,0,0,2.6-.65A4.62,4.62,0,0,0,33,22.58a5,5,0,0,0,1.12-2.41,36.36,36.36,0,0,0,.29-5.7,37.19,37.19,0,0,0-.29-5.73A5,5,0,0,0,33,6.37,5,5,0,0,0,31.35,4.9a6,6,0,0,0-2.6-.61,5.7,5.7,0,0,0-2.54.61,5.24,5.24,0,0,0-1.74,1.47,4.65,4.65,0,0,0-1.08,2.37A35.18,35.18,0,0,0,23.08,14.47Z" fill="#102542"/>
        <path d="M51.58,13.05h9.81v5.79A10.23,10.23,0,0,1,58.55,26a9.63,9.63,0,0,1-7,2.95,10,10,0,0,1-8.64-5.12c-.2-.43-.38-.84-.55-1.23A8.38,8.38,0,0,1,42,21.07a48.54,48.54,0,0,1-.29-6.6A48.64,48.64,0,0,1,42,7.83a8.1,8.1,0,0,1,.92-2.71A9.69,9.69,0,0,1,46.13,1.6a9.94,9.94,0,0,1,11.93.84,10.89,10.89,0,0,1,3.18,6H56.8A6.24,6.24,0,0,0,55,5.49a5.4,5.4,0,0,0-3.41-1.2A5.7,5.7,0,0,0,49,4.9a5.24,5.24,0,0,0-1.74,1.47,4.82,4.82,0,0,0-1.08,2.37,35.54,35.54,0,0,0-.3,5.73,34.76,34.76,0,0,0,.3,5.7A5.28,5.28,0,0,0,49,24a4.67,4.67,0,0,0,2.53.65,5.25,5.25,0,0,0,4-1.72,6.08,6.08,0,0,0,1.63-4.33V17.11H51.58Z" fill="#102542"/>
        <path d="M64.5,14.47a49.27,49.27,0,0,1,.28-6.65,7.94,7.94,0,0,1,.93-2.72,9.69,9.69,0,0,1,3.21-3.5A9.31,9.31,0,0,1,74.35,0,9.46,9.46,0,0,1,83,5.12a6.64,6.64,0,0,1,1,2.71,58,58,0,0,1,.24,6.64,57.88,57.88,0,0,1-.24,6.6,6.73,6.73,0,0,1-1,2.76,9.16,9.16,0,0,1-3.14,3.47A9.62,9.62,0,0,1,74.35,29a9.95,9.95,0,0,1-8.64-5.12c-.2-.43-.39-.84-.55-1.23a8.31,8.31,0,0,1-.38-1.53A49.08,49.08,0,0,1,64.5,14.47Zm4.17,0a33.29,33.29,0,0,0,.31,5.7,4.75,4.75,0,0,0,1.08,2.41A4.9,4.9,0,0,0,71.8,24a4.71,4.71,0,0,0,2.54.65,5,5,0,0,0,2.6-.65,4.62,4.62,0,0,0,1.66-1.42,5,5,0,0,0,1.12-2.41,36.36,36.36,0,0,0,.29-5.7,37.19,37.19,0,0,0-.29-5.73A5,5,0,0,0,78.6,6.37,5,5,0,0,0,76.94,4.9a6,6,0,0,0-2.6-.61,5.67,5.67,0,0,0-2.54.61,5.24,5.24,0,0,0-1.74,1.47A4.65,4.65,0,0,0,69,8.74,34,34,0,0,0,68.67,14.47Z" fill="#102542"/>
      </g>
    </g>
  </g>
</svg>
